<?xml version="1.0" encoding="UTF-8"?>
<svg xmlns="http://www.w3.org/2000/svg" xmlns:xlink="http://www.w3.org/1999/xlink" width="58px" height="58px" viewBox="0 0 58 58" version="1.1">
  <title>Icons / Usp / Happy Check / 64x64</title>
  <g id="Page-1" stroke="none" stroke-width="1" fill="none" fill-rule="evenodd">
    <g id="v2_HP-Revamp@1440" transform="translate(-690.000000, -859.000000)">
      <g id="Group-50" transform="translate(0.000000, 694.000000)">
        <g id="Group-14" transform="translate(120.000000, 68.000000)">
          <g id="Icons-/-Usp-/-Happy-Check-/-64x64" transform="translate(570.000000, 97.000000)">
            <rect id="Rectangle-Copy-3" fill="#FFFFFF" x="0" y="0" width="58" height="58" rx="5"></rect>
            <g id="Group-5" transform="translate(7.250000, 9.062500)" fill="#F37121" stroke="#F37121">
              <path d="M21.2846113,39.6711589 L14.9134139,33.2999615 C14.7212696,33.1076658 14.7212696,32.7960558 14.9134139,32.6039115 L16.8940602,30.6232652 C17.0863559,30.4311209 17.3978145,30.4311209 17.5901102,30.6232652 L21.7767067,34.8100131 L32.4439729,24.1427469 C32.6361173,23.9504512 32.9477272,23.9504512 33.1398716,24.1427469 L35.1205178,26.1233932 C35.3128136,26.3155375 35.3128136,26.6271475 35.1205178,26.8192918 L22.2688022,39.6711589 C21.9970141,39.942947 21.5563994,39.942947 21.2846113,39.6711589" id="Fill-1"></path>
              <path d="M11.9600388,29.5192151 C11.7315551,29.7476987 11.3611965,29.7476987 11.1327128,29.5192151 L4.72850719,23.1150094 C1.63542244,20.0219246 1.57763866e-15,16.4181205 1.57763866e-15,12.6933367 C1.57763866e-15,9.33815431 1.32971761,6.16027772 3.74492199,3.74492194 C6.15997495,1.32986898 9.33754871,0 12.6922768,0 L12.6933367,0 C15.850621,0 18.9208422,1.17497247 21.6670376,3.41680784 C21.7313885,3.46934849 21.8234482,3.46934849 21.8879506,3.41680784 C24.6120395,1.19768457 27.6595486,0.035430871 30.7966948,0.035430871 L30.8297031,0.035430871 C34.1751949,0.0442128818 37.3471664,1.37832145 39.761008,3.7921631 C42.1750011,6.20615616 43.5092611,9.3781276 43.5179348,12.7237709 C43.5271279,16.2689778 42.0523558,19.7007756 39.2451406,22.6821168 C39.0189281,22.9224108 38.6378191,22.9278617 38.4044902,22.6945328 L36.55406,20.8441026 C36.3310272,20.6210698 36.3266362,20.2619158 36.5417954,20.0310095 C38.638122,17.7809978 39.7392044,15.2681314 39.7325422,12.7336128 C39.7264857,10.3953267 38.7860534,8.17044971 37.0844631,6.46885941 C35.3828728,4.76726912 33.1579958,3.8268369 30.8197098,3.82078034 L30.7973005,3.82078034 C28.1162132,3.82078034 25.4605634,5.05980093 23.1150095,7.40505204 L21.9654745,8.55473838 C21.8613017,8.6589112 21.6923237,8.6589112 21.5879995,8.55473838 L20.4384646,7.40505204 C18.0706528,5.03724024 15.3922909,3.78550088 12.6930339,3.78534947 L12.6922768,3.78534947 C10.3485398,3.78534947 8.12169446,4.72139068 6.4216183,6.42161825 C4.72139074,8.12184582 3.78504669,10.3491454 3.78534952,12.6930338 C3.78550093,15.3921394 5.0372403,18.0705013 7.40520351,20.4383131 L13.8094092,26.8425187 C14.0378928,27.0710024 14.0378928,27.441361 13.8094092,27.6698447 L11.9600388,29.5192151 Z" id="Fill-3"></path>
            </g>
          </g>
        </g>
      </g>
    </g>
  </g>
</svg>
