<?xml version="1.0" encoding="UTF-8"?>
<svg xmlns="http://www.w3.org/2000/svg" xmlns:xlink="http://www.w3.org/1999/xlink" width="58px" height="58px" viewBox="0 0 58 58" version="1.1">
  <title>Icons / Usp / Quality Refurbishment / 64x64</title>
  <defs>
    <polygon id="path-1" points="7 5 51.2487919 5 51.2487919 53 7 53"></polygon>
  </defs>
  <g id="Page-1" stroke="none" stroke-width="1" fill="none" fill-rule="evenodd">
    <g id="v2_HP-Revamp@1440" transform="translate(-276.000000, -859.000000)">
      <g id="Group-50" transform="translate(0.000000, 694.000000)">
        <g id="Group-14" transform="translate(120.000000, 68.000000)">
          <g id="Icons-/-Usp-/-Quality-Refurbishment-/-64x64" transform="translate(156.000000, 97.000000)">
            <rect id="Rectangle-Copy-3" fill="#FFFFFF" x="0" y="0" width="58" height="58" rx="5"></rect>
            <mask id="mask-2" fill="white">
              <use xlink:href="#path-1"></use>
            </mask>
            <g id="Clip-2"></g>
            <path d="M47.4709837,29.8182474 C47.4709837,31.4851425 47.1479817,33.1001525 46.5355933,34.4886228 C45.8888584,35.9574781 44.953468,37.0938314 43.7586528,37.8202205 L29.1241767,47.607474 L19.4976935,41.1708184 L28.5994812,32.0690307 C31.297498,32.7333041 34.266632,32.0120304 36.3749144,29.903748 C38.5833128,27.6953495 39.2702402,24.5420606 38.4356965,21.7453893 L35.8831036,24.2979822 L34.292209,25.8888767 L32.1196185,25.30645 L29.947028,24.724754 L29.3646013,22.5514328 L28.7821746,20.3781115 L30.3730692,18.7879477 L32.9249313,16.2353548 C30.1282599,15.4015419 26.974971,16.0877385 24.7665726,18.2961369 C22.6582902,20.4044194 21.9370164,23.3735533 22.6012898,26.0715702 L12.6218428,36.0517479 C12.2813022,35.5818604 11.9685311,35.0703187 11.7127602,34.4886228 C11.1011026,33.1001525 10.7781005,31.4851425 10.7781005,29.8182474 L10.7781005,12.0282901 L29.1241767,8.80703918 L47.4709837,12.0282901 L47.4709837,29.8182474 Z M49.6866899,8.58196085 L29.4508326,5.02820787 C29.2352544,4.99020763 29.0138299,4.99020763 28.7975208,5.02820787 L8.56239438,8.58196085 C7.65842719,8.74053876 7,9.52465905 7,10.4425109 L7,29.8182474 C7,32.0054534 7.43334886,34.1466206 8.25473861,36.0115554 C9.21643693,38.1936459 10.6706768,39.9211952 12.3901875,40.9603555 L28.0740548,51.4506134 C28.3919414,51.6632686 28.7580591,51.7692308 29.1241767,51.7692308 C29.4902944,51.7692308 29.8564121,51.6632686 30.1742987,51.4506134 L45.7872809,41.0056635 C47.5776767,39.9211952 49.0326473,38.1936459 49.9928841,36.0115554 C50.8150046,34.1466206 51.2490842,32.0054534 51.2490842,29.8182474 L51.2490842,10.4425109 C51.2490842,9.52465905 50.5899263,8.74053876 49.6866899,8.58196085 L49.6866899,8.58196085 Z" id="Fill-1" fill="#F27121" mask="url(#mask-2)"></path>
          </g>
        </g>
      </g>
    </g>
  </g>
</svg>
