<?xml version="1.0" encoding="UTF-8"?>
<svg xmlns="http://www.w3.org/2000/svg" xmlns:xlink="http://www.w3.org/1999/xlink" width="58px" height="58px" viewBox="0 0 58 58" version="1.1">
  <title>Icons / Usp / Stock / 64x64</title>
  <defs>
    <polygon id="path-1" points="0 0 45.3125 0 45.3125 32.3897998 0 32.3897998"></polygon>
  </defs>
  <g id="Page-1" stroke="none" stroke-width="1" fill="none" fill-rule="evenodd">
    <g id="v2_HP-Revamp@1440" transform="translate(-1105.000000, -859.000000)">
      <g id="Group-50" transform="translate(0.000000, 694.000000)">
        <g id="Group-14" transform="translate(120.000000, 68.000000)">
          <g id="Icons-/-Usp-/-Stock-/-64x64" transform="translate(985.000000, 97.000000)">
            <rect id="Rectangle" fill="#FFFFFF" x="0" y="0" width="58" height="58" rx="4.53125"></rect>
            <g id="Group-3-Copy" transform="translate(6.343750, 12.687500)">
              <mask id="mask-2" fill="white">
                <use xlink:href="#path-1"></use>
              </mask>
              <g id="Clip-2"></g>
              <path d="M39.311001,19.754834 L34.9185205,19.7803223 L29.9178613,16.9886475 L30.6400293,16.0944336 L39.3287012,15.1095947 L39.311001,19.754834 Z M10.3938379,19.7803223 L6.00135742,19.754834 L5.98365723,15.1095947 L14.6723291,16.0944336 L15.3952051,16.9886475 L10.3938379,19.7803223 Z M10.3272852,6.95476074 C10.9602441,5.43254395 11.5124902,4.10644531 11.9557031,3.29506836 C13.7689111,2.93894043 19.0655176,2.73007812 22.0844629,2.68122559 L23.2066553,2.68122559 C26.2702051,2.73149414 31.5484033,2.93964844 33.3573633,3.29506836 C33.8005762,4.10644531 34.3521143,5.43254395 34.9857813,6.95476074 C35.4240381,8.00827637 35.9104395,9.1708252 36.4584375,10.4126709 L8.8539209,10.4126709 C9.40262695,9.1708252 9.88832031,8.00827637 10.3272852,6.95476074 L10.3272852,6.95476074 Z M44.2436914,7.9204834 C43.2170801,7.3767334 41.9462061,7.01918945 41.9462061,7.01918945 C41.9462061,7.01918945 40.4862939,6.53845215 39.9659082,7.56506348 C39.3959619,8.68796387 39.8781152,10.0225586 39.8781152,10.0225586 L39.5099512,10.6597656 C37.7278955,6.796875 36.5816309,3.52446289 35.6059961,1.82312012 C35.0141016,0.790844727 34.3683984,0.745532227 34.2586572,0.745532227 C34.2480371,0.745532227 34.242373,0.745532227 34.242373,0.745532227 C31.8231104,0.138061523 23.2278955,0 23.2278955,0 L22.0844629,0 C22.0844629,0 13.489248,0.138061523 11.0699854,0.745532227 C11.0699854,0.745532227 11.0643213,0.745532227 11.0537012,0.745532227 C10.94396,0.745532227 10.2989648,0.790844727 9.70707031,1.82312012 C8.73072754,3.52446289 7.58446289,6.796875 5.80240723,10.6597656 L5.43424316,10.0225586 C5.43424316,10.0225586 5.91710449,8.68796387 5.3471582,7.56506348 C4.82606445,6.53845215 3.36686035,7.01918945 3.36686035,7.01918945 C3.36686035,7.01918945 2.09598633,7.3767334 1.06866699,7.9204834 C0.376943359,8.28723145 -0.132114258,8.98745117 0.0300195313,9.79812012 C0.153920898,10.4155029 0.880336914,10.6802979 1.42054687,10.7985352 C2.14979492,10.9585449 2.91373535,10.9415527 3.6521875,10.875 L4.43807617,12.3830566 C3.80440918,13.1597412 3.13109375,14.1375 2.65389648,15.2398682 L2.65389648,21.022168 L2.65389648,23.837207 L2.65389648,31.2812012 C2.65389648,31.8907959 3.15304199,32.3899414 3.76334473,32.3899414 L10.1042627,32.3899414 C10.7138574,32.3899414 11.2130029,31.8907959 11.2130029,31.2812012 L11.2130029,28.7684814 L34.0993555,28.7684814 L34.0993555,31.2812012 C34.0993555,31.8907959 34.598501,32.3899414 35.2088037,32.3899414 L41.5497217,32.3899414 C42.1593164,32.3899414 42.6584619,31.8907959 42.6584619,31.2812012 L42.6584619,23.837207 L42.6584619,21.022168 L42.6584619,15.2398682 C42.1819727,14.1375 41.5079492,13.1597412 40.8749902,12.3830566 L41.6601709,10.875 C42.398623,10.9415527 43.1632715,10.9585449 43.8918115,10.7985352 C44.4320215,10.6802979 45.1584375,10.4155029 45.2823389,9.79812012 C45.4444727,8.98745117 44.935415,8.28723145 44.2436914,7.9204834 L44.2436914,7.9204834 Z" id="Fill-1" fill="#F27121" mask="url(#mask-2)"></path>
            </g>
          </g>
        </g>
      </g>
    </g>
  </g>
</svg>
